<?xml version="1.0" encoding="utf-8"?>
<!-- Generator: Adobe Illustrator 24.0.3, SVG Export Plug-In . SVG Version: 6.00 Build 0)  -->
<svg version="1.1" id="Flood" xmlns="http://www.w3.org/2000/svg" xmlns:xlink="http://www.w3.org/1999/xlink" x="0px" y="0px"
	 viewBox="0 0 180 180" style="enable-background:new 0 0 180 180;" xml:space="preserve">
<title>Artboard 13</title>
<path id="Wave_1_4_" d="M172,22c-6.7,0.4-12.2,10.1-16.5,17.5c-3.7,13.4-14.3,12.8-19.8,1.6c-9.9-23-20.6-26.8-31.1-2.7
	C99.8,52.1,84.4,56.6,76.3,36c-9.8-17.3-16.8-18.6-27.1-1.8c-0.3,0.5-0.5,1-0.7,1.5C45.7,42,38.4,50.4,34.9,50.4
	c-3.7,0-9.2-5.2-12.3-11.5c-5-9.5-8.9-14.5-16.3-14.5c-3.7,0-6.2-0.1-6.2,7.9s0.4,3.1,4.1,3.1s10.9,4.6,14,11
	c4.9,9.5,9.1,14.7,16.5,14.7c6.1,0,10-3.4,14.9-11.2c0.2-0.3,3.1-3.2,3.2-3.5c5.6-10.7,14.5-10.1,20,0.9c9.8,17.4,24.7,23.1,35.2,6
	c0.1-0.2,4.4-7.2,4.5-7.4c5.6-10.8,14.5-6.7,20,4.3c9.8,17.2,19.9,14.5,30.4-2.3c0.3-0.5,2.3-4.4,2.5-4.9c2.5-5.6,5-8.1,8.2-4.7
	c2.4,2.6,6.2,0.3,6.2-7.6S175.7,21.8,172,22z"/>
<path id="Wave_1_1_" d="M172,52.4c-6.7,0.4-12.2,10.1-16.5,17.5c-3.7,13.4-14.3,12.8-19.8,1.6c-9.9-23-20.6-26.8-31.1-2.7
	c-4.8,13.7-20.2,18.2-28.3-2.4c-9.8-17.3-16.8-18.6-27.1-1.8c-0.3,0.5-0.5,1-0.7,1.5c-2.8,6.3-10.1,14.8-13.6,14.8
	c-3.7,0-9.2-5.2-12.3-11.5c-5-9.5-8.9-14.5-16.3-14.5c-3.7,0-6.2-0.1-6.2,7.9s0.4,3.1,4.1,3.1s10.9,4.6,14,11
	c4.9,9.5,9.1,14.7,16.5,14.7c6.1,0,10-3.4,14.9-11.2c0.2-0.3,3.1-3.2,3.2-3.5c5.6-10.7,14.5-10.1,20,0.9c9.8,17.4,24.7,23.1,35.2,6
	c0.1-0.2,4.4-7.2,4.5-7.4c5.6-10.8,14.5-6.7,20,4.3c9.8,17.2,19.9,14.5,30.4-2.3c0.3-0.5,2.3-4.4,2.5-4.9c2.5-5.6,5-8.1,8.2-4.7
	c2.4,2.6,6.2,0.3,6.2-7.6S175.7,52.2,172,52.4z"/>
<path id="Wave_1_2_" d="M172,83c-6.7,0.4-12.2,10.1-16.5,17.5c-3.7,13.4-14.3,12.8-19.8,1.6c-9.9-23-20.6-26.8-31.1-2.7
	c-4.8,13.7-20.2,18.2-28.3-2.4c-9.8-17.3-16.8-18.6-27.1-1.8c-0.3,0.5-0.5,1-0.7,1.5c-2.8,6.3-10.1,14.8-13.6,14.8
	c-3.7,0-9.2-5.2-12.3-11.5c-5-9.5-8.9-14.5-16.3-14.5c-3.7,0-6.2-0.1-6.2,7.9s0.4,3.1,4.1,3.1s10.9,4.6,14,11
	c4.9,9.5,9.1,14.7,16.5,14.7c6.1,0,10-3.4,14.9-11.2c0.2-0.3,3.1-3.2,3.2-3.5c5.6-10.7,14.5-10.1,20,0.9c9.8,17.4,24.7,23.1,35.2,6
	c0.1-0.2,4.4-7.2,4.5-7.4c5.6-10.8,14.5-6.7,20,4.3c9.8,17.2,19.9,14.5,30.4-2.3c0.3-0.5,2.3-4.4,2.5-4.9c2.5-5.6,5-8.1,8.2-4.7
	c2.4,2.6,6.2,0.3,6.2-7.6S175.7,82.8,172,83z"/>
<path id="Wave_1_3_" d="M172,113.2c-6.7,0.4-12.2,10.1-16.5,17.5c-3.7,13.4-14.3,12.8-19.8,1.6c-9.9-23-20.6-26.8-31.1-2.7
	c-4.8,13.7-20.2,18.2-28.3-2.4c-9.8-17.3-16.8-18.6-27.1-1.8c-0.3,0.5-0.5,1-0.7,1.5c-2.8,6.3-10.1,14.8-13.6,14.8
	c-3.7,0-9.2-5.2-12.3-11.5c-5-9.5-8.9-14.5-16.3-14.5c-3.7,0-6.2-0.1-6.2,7.9s0.4,3.1,4.1,3.1s10.9,4.6,14,11
	c4.9,9.5,9.1,14.7,16.5,14.7c6.1,0,10-3.4,14.9-11.2c0.2-0.3,3.1-3.2,3.2-3.5c5.6-10.7,14.5-10.1,20,0.9c9.8,17.4,24.7,23.1,35.2,6
	c0.1-0.2,4.4-7.2,4.5-7.4c5.6-10.8,14.5-6.7,20,4.3c9.8,17.2,19.9,14.5,30.4-2.3c0.3-0.5,2.3-4.4,2.5-4.9c2.5-5.6,5-8.1,8.2-4.7
	c2.4,2.6,6.2,0.3,6.2-7.6S175.7,112.9,172,113.2z"/>
</svg>
