<?xml version="1.0" encoding="utf-8"?>
<!-- Generator: Adobe Illustrator 24.0.3, SVG Export Plug-In . SVG Version: 6.00 Build 0)  -->
<svg version="1.1" id="Capa_1" xmlns="http://www.w3.org/2000/svg" xmlns:xlink="http://www.w3.org/1999/xlink" x="0px" y="0px"
	 viewBox="0 0 512 512" style="enable-background:new 0 0 512 512;" xml:space="preserve">
<style type="text/css">
	.st0{fill:none;}
	.st1{fill:#F42200;}
	.st2{fill:#F42200;stroke:#AA2600;stroke-miterlimit:10;}
</style>
<path class="st0" d="M415.8,426c-7,0-126.1,0-217,0c-11.1,0-20,9-20,20v40h257v-40C435.8,435,426.8,426,415.8,426z"/>
<path class="st1" d="M336,266c0-5.5-4.5-10-10-10s-10,4.5-10,10s4.5,10,10,10S336,271.5,336,266z"/>
<path class="st2" d="M416,416h-11.9l-32.6-182.5c-6.1-33.3-35-57.5-68.9-57.5h-93.2c-33.9,0-62.8,24.2-68.9,57.5L107.9,416H96
	c-16.5,0-30,13.5-30,30v40c0,5.5,4.5,10,10,10h360c5.5,0,10-4.5,10-10v-40C446,429.5,432.5,416,416,416z M160.2,237.1
	c4.3-23.8,25-41.1,49.2-41.1h93.2c24.2,0,44.9,17.3,49.2,41l31.9,179H128.3L160.2,237.1z M426,476H86v-30c0-5.5,4.5-10,10-10
	c22.5,0,306.4,0,320,0c5.5,0,10,4.5,10,10V476z"/>
<path class="st1" d="M358.2,384.2l-14.7-80.8c-1-5.4-6.2-9-11.6-8.1c-5.4,1-9,6.2-8.1,11.6l14.7,80.8c1,5.5,6.2,9,11.6,8.1
	C355.6,394.9,359.2,389.6,358.2,384.2z"/>
<path class="st1" d="M502,256h-86c-5.5,0-10,4.5-10,10s4.5,10,10,10h86c5.5,0,10-4.5,10-10S507.5,256,502,256z"/>
<path class="st1" d="M0,266c0,5.5,4.5,10,10,10h86c5.5,0,10-4.5,10-10s-4.5-10-10-10H10C4.5,256,0,260.5,0,266z"/>
<path class="st1" d="M432.8,89.2c-3.9-3.9-10.2-3.9-14.1,0l-56.6,56.6c-3.9,3.9-3.9,10.2,0,14.1c3.9,3.9,10.2,3.9,14.1,0l56.6-56.6
	C436.7,99.5,436.7,93.1,432.8,89.2z"/>
<path class="st1" d="M79.2,89.2c-3.9,3.9-3.9,10.2,0,14.1l56.6,56.6c3.9,3.9,10.2,3.9,14.1,0c3.9-3.9,3.9-10.2,0-14.1L93.4,89.2
	C89.5,85.3,83.1,85.3,79.2,89.2z"/>
<path class="st1" d="M266,106V26c0-5.5-4.5-10-10-10s-10,4.5-10,10v80c0,5.5,4.5,10,10,10S266,111.5,266,106z"/>
</svg>
