<?xml version="1.0" encoding="utf-8"?>
<!-- Generator: Adobe Illustrator 24.0.3, SVG Export Plug-In . SVG Version: 6.00 Build 0)  -->
<svg version="1.1" id="Clock_1_" xmlns="http://www.w3.org/2000/svg" xmlns:xlink="http://www.w3.org/1999/xlink" x="0px" y="0px"
	 viewBox="0 0 512 512" style="enable-background:new 0 0 512 512;" xml:space="preserve">
<g>
	<path d="M280.6,339.4c-68.8,18.3-130.1-43-111.8-111.8c8.1-30.5,32.1-54.6,62.7-62.7c68.8-18.3,130.1,43.1,111.8,111.8
		C335.1,307.3,311.1,331.3,280.6,339.4z M280.2,166.4c-61.3-16.3-116.6,31.8-113,91.3c2.7,44.9,38.5,80.6,83.4,83.3
		c59.5,3.6,107.6-51.7,91.3-113C333.8,198,310.2,174.4,280.2,166.4z"/>
	<polygon points="281.6,274.4 281.1,274.1 253.5,256.9 254.5,255.3 255,255.5 282.6,272.7 	"/>
	<g>
		<rect x="253.5" y="199.1" width="2" height="58.1"/>
	</g>
</g>
</svg>
