<?xml version="1.0" encoding="utf-8"?>
<!-- Generator: Adobe Illustrator 24.0.3, SVG Export Plug-In . SVG Version: 6.00 Build 0)  -->
<svg version="1.1" id="Dog_1_" xmlns="http://www.w3.org/2000/svg" xmlns:xlink="http://www.w3.org/1999/xlink" x="0px" y="0px"
	 viewBox="0 0 213.6 222" style="enable-background:new 0 0 213.6 222;" xml:space="preserve">
<style type="text/css">
	.st0{fill:none;stroke:#000000;stroke-width:2;stroke-miterlimit:10;}
	.st1{fill:none;stroke:#000000;stroke-width:2;stroke-linejoin:round;stroke-miterlimit:10;}
	.st2{stroke:#000000;stroke-width:2;stroke-miterlimit:10;}
</style>
<g id="Layer_1_1_">
</g>
<g id="Dog">
	<g>
		<title>travel vol.1</title>
		<g>
			<g>
				<g>
					<g>
						<path class="st0" d="M147.9,139.6 M157.6,139.6c-4.6,0-19.8,0.6-23.3,0.9c-3.7,0.3-7.5-0.4-14.8,0c-0.2,0-0.5,0-0.7,0
							c-4.9-0.5-10.4,0.4-14.6,0.4c-3.8-0.1-7.2-0.1-10-0.4c-1.9-0.2-3.6,1.2-3.8,3.1c-0.2,2.8-0.4,6-0.6,9c-0.2,3-0.3,5.7-0.5,7.6
							c-2.9,24.9-5.7,42.7-14.9,44.9c-0.3,0.3-0.8,0.3-1.2,0.3c-2.6-0.1-4.9-1.7-6.5-4.3c-8.3-12.5-13.2-62.6-9.9-84.6
							c0.1-0.9-0.1-1.9-0.7-2.7c-1.2-1.5-2.3-3.1-3.5-4.7l-0.4-0.5c-1.2-2.1-2.6-4.1-4.5-6.1c-0.6-0.7-1.5-1.1-2.4-1.1
							c-4-0.1-12,0-16.7,0.1h-0.4c-1.1,0-2.1-0.5-3.1-1.6C9.7,81.6,3.1,81.2,8.5,75.6C32.3,65.1,26,66.7,39.6,62.5
							c5.2-1.3,12.3-7.6,13.6-12.9c0.2-0.7-0.3,0.7,0,0c3.4-7.5,6-14.6,7.6-21.5c0.2-1.2,0.9-2.3,1.9-3c0.6-0.5,1.2-0.7,1.9-0.7
							c0.6-0.1,2.1,0.1,4.1,2.7c2.4,3.2,3.1,6.7,3.1,7.1c0.4,2.2,0.8,3.1,1.8,5.1c0.9,1.9,2.3,4.7,4.5,10.4c3.1,8,7.1,19.2,9.3,28.9
							c0.4,1.6,1.8,2.7,3.4,2.7l65.5,0c0.9,0,1.8-0.4,2.5-1.1c19.2-19.6,21.5-19.6,23-19.6c0.1,0,1.7,0,3.3,1.7
							c6.8,6.9,9,30.5,6.7,70c-1.7,29.4-5.5,57.1-5.5,57.4c0,0.2,0,0.3-0.1,0.4c0,0.4-0.1,1.2-0.5,2c-2.5,5.6-6.4,9.9-11.2,12.3
							c-0.2,0.1-0.4,0.2-0.6,0.2c-3.1,1-6.4,0.2-9-1.9c-2.6-1.9-6.9-6.8-7.3-13.2c0-13,0-13-0.1-24.4V165c0-1.7-0.1-3.5-0.1-5.3
							c-0.1-3.9-0.3-8,0.1-12.8c0.1-1.1-0.9-8.3-0.6-7.3"/>
					</g>
				</g>
			</g>
		</g>
		<g>
			<g>
				<g>
					<polyline class="st0" points="50.7,106.3 46,101.3 85,73.4 85.2,70.2 					"/>
				</g>
			</g>
		</g>
		<g>
			<g>
				<g>
					<polyline points="157.6,81.2 157.6,82.2 90.8,81.3 					"/>
				</g>
			</g>
		</g>
		<g>
			<g>
				<g>
					<path class="st1" d="M188,189.5"/>
				</g>
			</g>
		</g>
		<g>
			<g>
				<g>
					<path class="st1" d="M186.8,62.5"/>
				</g>
			</g>
		</g>
	</g>
</g>
<path d="M53.8,111.5"/>
<path d="M92.1,82.2"/>
<line class="st2" x1="56" y1="113.9" x2="93.8" y2="81.4"/>
</svg>
