<?xml version="1.0" encoding="utf-8"?>
<!-- Generator: Adobe Illustrator 24.0.3, SVG Export Plug-In . SVG Version: 6.00 Build 0)  -->
<svg version="1.1" id="Layer_1" xmlns="http://www.w3.org/2000/svg" xmlns:xlink="http://www.w3.org/1999/xlink" x="0px" y="0px"
	 viewBox="0 0 512 640" style="enable-background:new 0 0 512 640;" xml:space="preserve">
<style type="text/css">
	.st0{fill:none;stroke:#000000;stroke-miterlimit:10;}
</style>
<g>
	<g>
		<path class="st0" d="M256,396c-0.8,0-1.6-0.4-2.1-1c-10.2-11.4-20.3-21.5-30.1-31.3l-1.2-1.2c-14.4-14.4-29.3-29.2-39.8-44.4
			c-11.5-16.7-16.8-32.7-16.8-50.3c0-28.6,20.8-51.8,46.5-51.8c22.8,0,34,13,43.5,32.7c9.6-19.7,20.8-32.7,43.5-32.7
			c25.6,0,46.5,23.3,46.5,51.8c0,17.6-5.4,33.6-16.8,50.3c-10.4,15-25.3,29.9-39.8,44.4c-10.2,10.2-20.7,20.7-31.4,32.6
			C257.4,395.7,256.8,396,256,396z M212.5,217.1c-25,0-45.4,22.8-45.4,50.8c0,17.4,5.3,33.1,16.6,49.7
			c10.4,15.1,25.3,29.9,39.7,44.3l1.2,1.2c9.8,9.8,19.9,19.9,30.1,31.4c0.3,0.4,0.8,0.6,1.3,0.6c0.6,0,1-0.4,1.3-0.6
			c10.7-11.9,21.2-22.4,31.4-32.6c14.4-14.4,29.4-29.3,39.7-44.3c11.4-16.5,16.6-32.3,16.6-49.7c0-28-20.4-50.8-45.5-50.8
			c-22.6,0-33.5,13.2-43,33l-0.5,1l-0.5-1C246.1,230.3,235.1,217.1,212.5,217.1z"/>
	</g>
</g>
</svg>
