<?xml version="1.0" encoding="utf-8"?>
<!-- Generator: Adobe Illustrator 24.0.3, SVG Export Plug-In . SVG Version: 6.00 Build 0)  -->
<svg version="1.1" id="Capa_1" xmlns="http://www.w3.org/2000/svg" xmlns:xlink="http://www.w3.org/1999/xlink" x="0px" y="0px"
	 viewBox="0 0 512 512" style="enable-background:new 0 0 512 512;" xml:space="preserve">
<style type="text/css">
	.st0{fill:#FFFFFF;stroke:#000000;stroke-width:0.8996;stroke-miterlimit:10;}
	.st1{fill:#FFFFFF;}
</style>
<g>
	<path class="st0" d="M366.1,291"/>
</g>
<g>
	<path class="st1" d="M311.9,205.6c0,21.4-24.1,39.5-53.1,39.5s-52-18.3-52-39.5s23.4-38.7,52.7-38.7
		C288.5,166.9,311.9,184.2,311.9,205.6z"/>
	<path d="M258.8,246c-14.1,0-27.4-4.3-37.4-12s-15.5-17.8-15.5-28.4c0-21.9,24-39.6,53.6-39.6c29.4,0,53.3,17.7,53.3,39.6
		S288.1,246,258.8,246z M259.5,167.8c-28.5,0-51.8,16.9-51.8,37.8c0,10.1,5.3,19.6,14.8,27c9.7,7.5,22.6,11.6,36.3,11.6
		c28.3,0,52.2-17.7,52.2-38.6S287.9,167.8,259.5,167.8z"/>
</g>
<g>
	<path class="st1" d="M333.1,345.1h-147v-17.5c0-36.9,18.7-66.8,45.7-66.8h51.6c27.5,0,49.8,30.6,49.8,68.3L333.1,345.1L333.1,345.1
		L333.1,345.1z"/>
	<path d="M333.2,346H186.1c-0.5,0-0.9-0.4-0.9-0.9v-17.5c0-38.6,20-67.7,46.6-67.7h51.6c28,0,50.7,31.1,50.7,69.2v16
		C334.1,345.6,333.7,346,333.2,346z M187,344.2h145.3v-15.1c0-37.1-21.9-67.4-48.9-67.4h-51.6c-25.5,0-44.8,28.3-44.8,65.9
		L187,344.2L187,344.2z"/>
</g>
</svg>
